<svg width="59" height="52" viewBox="0 0 59 52" fill="none" xmlns="http://www.w3.org/2000/svg">
<g filter="url(#filter0_d_8552_95676)">
<path d="M44.2786 9.37501H29.055C28.5926 9.37643 28.1402 9.24047 27.7552 8.98438L25.0403 7.16896C24.1413 6.5678 23.0837 6.24789 22.0022 6.25001H14.5911C13.1412 6.25156 11.7511 6.82823 10.7258 7.85348C9.70058 8.87874 9.12392 10.2688 9.12237 11.7188V14.0625H49.7473C49.7473 11.0469 47.2942 9.37501 44.2786 9.37501ZM45.8167 43.75H13.053C11.6181 43.7484 10.2413 43.1828 9.21949 42.1753C8.19773 41.1678 7.6129 39.7991 7.59112 38.3643L6.01495 22.2764V22.249C5.96333 21.6042 6.04573 20.9557 6.25697 20.3443C6.4682 19.7329 6.8037 19.1718 7.24234 18.6964C7.68099 18.221 8.21329 17.8415 8.80574 17.5818C9.3982 17.3221 10.038 17.1879 10.6849 17.1875H48.1946C48.8413 17.1881 49.4809 17.3226 50.0731 17.5824C50.6653 17.8422 51.1974 18.2217 51.6358 18.6971C52.0743 19.1725 52.4096 19.7335 52.6207 20.3448C52.8318 20.956 52.9142 21.6044 52.8626 22.249V22.2764L51.2786 38.3643C51.2568 39.7991 50.672 41.1678 49.6502 42.1753C48.6284 43.1828 47.2516 43.7484 45.8167 43.75Z" fill="#167EC4"/>
</g>
<defs>
<filter id="filter0_d_8552_95676" x="0" y="2.25" width="58.8789" height="49.5" filterUnits="userSpaceOnUse" color-interpolation-filters="sRGB">
<feFlood flood-opacity="0" result="BackgroundImageFix"/>
<feColorMatrix in="SourceAlpha" type="matrix" values="0 0 0 0 0 0 0 0 0 0 0 0 0 0 0 0 0 0 127 0" result="hardAlpha"/>
<feOffset dy="2"/>
<feGaussianBlur stdDeviation="3"/>
<feColorMatrix type="matrix" values="0 0 0 0 0.0627451 0 0 0 0 0.0941176 0 0 0 0 0.156863 0 0 0 0.06 0"/>
<feBlend mode="normal" in2="BackgroundImageFix" result="effect1_dropShadow_8552_95676"/>
<feBlend mode="normal" in="SourceGraphic" in2="effect1_dropShadow_8552_95676" result="shape"/>
</filter>
</defs>
</svg>
